<svg xmlns="http://www.w3.org/2000/svg" xmlns:xlink="http://www.w3.org/1999/xlink" version="1.1" x="0px" y="0px" viewBox="0 0 90 112.5" style="enable-background:new 0 0 90 90;" xml:space="preserve"><g><rect x="39.3764992" y="77.0243988" width="11.2461004" height="1.7158"/><rect x="43.7328987" y="55.7851982" width="2.5342" height="19.2392006"/><path d="M57.4213982,17.5487995H32.5786018c-1.4072018,0-2.5517025,1.1455002-2.5517025,2.5528011v24.842701   c0,1.407299,1.1445007,2.5517998,2.5517025,2.5517998h24.8427963c1.4072037,0,2.5517006-1.1445007,2.5517006-2.5517998v-24.842701   C59.9730988,18.6942997,58.8286018,17.5487995,57.4213982,17.5487995z"/><path d="M62.3120003,11.2598H27.6879997c-2.1786995,0-3.9512005,1.7723999-3.9512005,3.9511003v34.6240997   c0,2.1777,1.772501,3.9501991,3.9512005,3.9501991h34.6240005c2.1786995,0,3.9511986-1.7724991,3.9511986-3.9501991V15.2109003   C66.2631989,13.0321999,64.4906998,11.2598,62.3120003,11.2598z M61.9730988,44.9443016   c0,2.5098-2.0419006,4.5517998-4.5517006,4.5517998H32.5786018c-2.5097027,0-4.5517025-2.0419998-4.5517025-4.5517998v-24.842701   c0-2.5108013,2.0419998-4.5528002,4.5517025-4.5528002h24.8427963c2.5098,0,4.5517006,2.0419989,4.5517006,4.5528002V44.9443016z"/></g><text x="0" y="105" fill="#000000" font-size="5px" font-weight="bold" font-family="'Helvetica Neue', Helvetica, Arial-Unicode, Arial, Sans-serif">Created by iconcheese</text><text x="0" y="110" fill="#000000" font-size="5px" font-weight="bold" font-family="'Helvetica Neue', Helvetica, Arial-Unicode, Arial, Sans-serif">from the Noun Project</text></svg>